Coordinates
version=1
nRows=98
nColumns=6
inDegrees=yes

Units are S.I. units (second, meters, Newtons, ...)
If the header above contains a line with 'inDegrees', this indicates whether rotational values are in degrees (yes) or radians (no).

endheader
time	foot_tx	hip_flexion_r	knee_angle_r	ankle_angle_r	lumbar
     62.75000000	      0.25242473	     72.12251158	    -71.31839446	     -0.01645499	    -17.17203648
     62.76000000	      0.25239755	     72.55688167	    -71.29993517	     -0.00462381	    -17.55016245
     62.77000000	      0.25236414	     73.01244836	    -71.28082557	      0.01160884	    -17.93837616
     62.78000000	      0.25233101	     73.49326697	    -71.25747467	      0.03012586	    -18.33288776
     62.79000000	      0.25230950	     74.00629621	    -71.22522288	      0.04732102	    -18.72775901
     62.80000000	      0.25226445	     74.62749744	    -71.19704185	      0.06612767	    -19.03294374
     62.81000000	      0.25222682	     75.26489455	    -71.16153382	      0.08588588	    -19.36374744
     62.82000000	      0.25218248	     75.95249164	    -71.12534461	      0.10812294	    -19.68071902
     62.83000000	      0.25213595	     76.69663823	    -71.08703048	      0.13139360	    -19.97661874
     62.84000000	      0.25208196	     77.49664526	    -71.04828171	      0.15793135	    -20.24984276
     62.85000000	      0.25203252	     78.35676931	    -71.00458038	      0.18508141	    -20.49155826
     62.86000000	      0.25196324	     79.27408560	    -70.96218420	      0.21896468	    -20.70057271
     62.87000000	      0.25187997	     80.24881069	    -70.91659651	      0.25754724	    -20.87363427
     62.88000000	      0.25179463	     81.29155321	    -70.86742308	      0.29995938	    -20.99029925
     62.89000000	      0.25170230	     82.40297852	    -70.81545960	      0.34927622	    -21.04115286
     62.90000000	      0.25160634	     83.59152812	    -70.76209683	      0.40886437	    -21.00315953
     62.91000000	      0.25149381	     84.84550093	    -70.71212035	      0.48722204	    -20.87749780
     62.92000000	      0.25138164	     86.16398371	    -70.66407139	      0.58642602	    -20.65060309
     62.93000000	      0.25128792	     87.53498296	    -70.61564563	      0.70794848	    -20.32374631
     62.94000000	      0.25119634	     88.94197716	    -70.57736482	      0.86243969	    -19.90478801
     62.95000000	      0.25112790	     90.36448087	    -70.54753849	      1.05105851	    -19.40988388
     62.96000000	      0.25108549	     91.78123252	    -70.53188076	      1.27922448	    -18.85801594
     62.97000000	      0.25107608	     93.16731037	    -70.53133781	      1.54917051	    -18.27494178
     62.98000000	      0.25110266	     94.50542444	    -70.54994616	      1.86345347	    -17.67836439
     62.99000000	      0.25117075	     95.77184296	    -70.58300360	      2.21965676	    -17.09475745
     63.00000000	      0.25127889	     96.94934963	    -70.62723453	      2.61511025	    -16.54242213
     63.01000000	      0.25142177	     98.01216088	    -70.67963362	      3.04741147	    -16.05028501
     63.02000000	      0.25159206	     98.93605068	    -70.73747148	      3.51346159	    -15.64508738
     63.03000000	      0.25178073	     99.70201701	    -70.79995747	      4.00969311	    -15.34814646
     63.04000000	      0.25198055	    100.30289519	    -70.86535436	      4.53067159	    -15.16467462
     63.05000000	      0.25218736	    100.73233010	    -70.93740022	      5.07222610	    -15.10307605
     63.06000000	      0.25239661	    101.00417812	    -71.00854771	      5.62495196	    -15.13834093
     63.07000000	      0.25261258	    101.15943019	    -71.06800456	      6.17600360	    -15.21126641
     63.08000000	      0.25282340	    101.14599972	    -71.11187488	      6.72446873	    -15.38730166
     63.09000000	      0.25303306	    101.06212315	    -71.12043374	      7.25185092	    -15.52955919
     63.10000000	      0.25323975	    100.89586660	    -71.08541636	      7.75384080	    -15.65081884
     63.11000000	      0.25344389	    100.65885636	    -70.99597713	      8.22480579	    -15.72858432
     63.12000000	      0.25364369	    100.35152032	    -70.84310225	      8.66106430	    -15.76077326
     63.13000000	      0.25384605	     99.97658316	    -70.61567218	      9.05790518	    -15.73926740
     63.14000000	      0.25404367	     99.53021462	    -70.30771064	      9.41431413	    -15.66730453
     63.15000000	      0.25422934	     99.00601527	    -69.91187500	      9.72930690	    -15.55147202
     63.16000000	      0.25439726	     98.40006044	    -69.42251367	     10.00157800	    -15.39654099
     63.17000000	      0.25454499	     97.70403909	    -68.83651986	     10.23105877	    -15.21334554
     63.18000000	      0.25467666	     96.91203598	    -68.14950997	     10.41565727	    -15.01082329
     63.19000000	      0.25479018	     96.01797801	    -67.36090377	     10.55564703	    -14.79962395
     63.20000000	      0.25488861	     95.01299565	    -66.47031032	     10.65105558	    -14.59264008
     63.21000000	      0.25498418	     93.89292770	    -65.47784832	     10.70098201	    -14.39693936
     63.22000000	      0.25508162	     92.64770829	    -64.38907271	     10.70850698	    -14.22749155
     63.23000000	      0.25518891	     91.27765802	    -63.20555098	     10.67345392	    -14.08571208
     63.24000000	      0.25531139	     89.79202322	    -61.92909300	     10.59560019	    -13.96143882
     63.25000000	      0.25545404	     88.20468934	    -60.56040513	     10.47395304	    -13.83812728
     63.26000000	      0.25561992	     86.53361105	    -59.09965216	     10.30697795	    -13.69519710
     63.27000000	      0.25580749	     84.79107613	    -57.55193638	     10.09642788	    -13.52114267
     63.28000000	      0.25601123	     82.97824361	    -55.92530873	      9.84657686	    -13.31880911
     63.29000000	      0.25622327	     81.09987923	    -54.22940627	      9.56249150	    -13.08571582
     63.30000000	      0.25644170	     79.16214838	    -52.47383191	      9.24867787	    -12.81505118
     63.31000000	      0.25665265	     77.17548799	    -50.66810134	      8.90960192	    -12.49890273
     63.32000000	      0.25685245	     75.13227103	    -48.82502035	      8.55165289	    -12.15133030
     63.33000000	      0.25703426	     73.02509431	    -46.95787145	      8.18154468	    -11.78933204
     63.34000000	      0.25719209	     70.84077039	    -45.08062956	      7.80723666	    -11.43831407
     63.35000000	      0.25731936	     68.56170647	    -43.20293808	      7.43610629	    -11.12637933
     63.36000000	      0.25743176	     66.20640972	    -41.33254737	      7.07103292	    -10.83825866
     63.37000000	      0.25752600	     63.76636795	    -39.46606040	      6.71361281	    -10.58278250
     63.38000000	      0.25761499	     61.25936103	    -37.60316880	      6.36273071	    -10.34221041
     63.39000000	      0.25770686	     58.69970455	    -35.74703169	      6.01862356	    -10.10696500
     63.40000000	      0.25780169	     56.10977227	    -33.90190798	      5.68188165	     -9.85588670
     63.41000000	      0.25790361	     53.50270479	    -32.07636628	      5.35487294	     -9.58839587
     63.42000000	      0.25800678	     50.90676694	    -30.27898457	      5.04011194	     -9.28283160
     63.43000000	      0.25811064	     48.34025582	    -28.51840171	      4.73999999	     -8.93358014
     63.44000000	      0.25820432	     45.82639713	    -26.80409795	      4.45757151	     -8.52948026
     63.45000000	      0.25828133	     43.38002038	    -25.14304095	      4.19423673	     -8.07223967
     63.46000000	      0.25833231	     41.01964423	    -23.54257349	      3.95174938	     -7.55451076
     63.47000000	      0.25836342	     38.74847845	    -22.00834790	      3.72965881	     -6.99753481
     63.48000000	      0.25836134	     36.58572782	    -20.54473474	      3.52910878	     -6.38722808
     63.49000000	      0.25834393	     34.53166257	    -19.15621434	      3.34836627	     -5.74696143
     63.50000000	      0.25831099	     32.59521351	    -17.84653163	      3.18747120	     -5.07837772
     63.51000000	      0.25826736	     30.78247793	    -16.61890949	      3.04586781	     -4.38725160
     63.52000000	      0.25821688	     29.09538183	    -15.47548900	      2.92307009	     -3.68185705
     63.53000000	      0.25816390	     27.54190154	    -14.41416841	      2.81703351	     -2.95563667
     63.54000000	      0.25811082	     26.11234718	    -13.43500715	      2.72775095	     -2.22608407
     63.55000000	      0.25806058	     24.80120839	    -12.53339949	      2.65323730	     -1.49903185
     63.56000000	      0.25801329	     23.60055112	    -11.70155021	      2.59002942	     -0.78202987
     63.57000000	      0.25795899	     22.49751919	    -10.93563158	      2.53872730	     -0.08319935
     63.58000000	      0.25788387	     21.47846485	    -10.22602253	      2.49685923	      0.59067983
     63.59000000	      0.25779386	     20.53755256	     -9.56343324	      2.45913915	      1.23485422
     63.60000000	      0.25767580	     19.66404149	     -8.94104797	      2.42506129	      1.84906836
     63.61000000	      0.25752246	     18.84860724	     -8.35485365	      2.39474643	      2.43112242
     63.62000000	      0.25733527	     18.08590655	     -7.80330579	      2.36891314	      2.98197724
     63.63000000	      0.25712412	     17.37310442	     -7.28874231	      2.34961420	      3.50270911
     63.64000000	      0.25690913	     16.71238475	     -6.81678105	      2.33939531	      3.99616774
     63.65000000	      0.25670318	     16.10196959	     -6.39821280	      2.34493030	      4.46401351
     63.66000000	      0.25653726	     15.54805231	     -6.04483965	      2.37080119	      4.90843713
     63.67000000	      0.25644586	     15.05726678	     -5.76680130	      2.42060105	      5.33483860
     63.68000000	      0.25645375	     14.63442504	     -5.57336923	      2.49837837	      5.74958855
     63.69000000	      0.25659071	     14.26094004	     -5.46594219	      2.60406817	      6.12825256
     63.70000000	      0.25686126	     13.97361935	     -5.44541939	      2.73527626	      6.51612029
     63.71000000	      0.25725091	     13.73282308	     -5.49223146	      2.88526389	      6.87952970
     63.72000000	      0.25773542	     13.53767301	     -5.59004868	      3.04578210	      7.22427236
